name C:\Users\u0101727\Documents\MyRepositories\upper-imu-dc\Results\main_tracking\Case_29\kinematics.mot
datacolumns 43
datarows 5
range 1.67000000 1.71000000
endheader 
time	clav_prot	clav_elev	scapula_abduction	scapula_elevation	scapula_upward_rot	scapula_winging	plane_elv	shoulder_elv	axial_rot	TrapeziusScapula_M/activation	TrapeziusScapula_S/activation	TrapeziusScapula_I/activation	TrapeziusClavicle_S/activation	SerratusAnterior_I/activation	SerratusAnterior_M/activation	SerratusAnterior_S/activation	Rhomboideus_S/activation	Rhomboideus_I/activation	LevatorScapulae/activation	Coracobrachialis/activation	DeltoideusClavicle_A/activation	DeltoideusScapula_P/activation	DeltoideusScapula_M/activation	LatissimusDorsi_S/activation	LatissimusDorsi_M/activation	LatissimusDorsi_I/activation	PectoralisMajorClavicle_S/activation	PectoralisMajorThorax_I/activation	PectoralisMajorThorax_M/activation	TeresMajor/activation	Infraspinatus_I/activation	Infraspinatus_S/activation	PectoralisMinor/activation	TeresMinor/activation	Subscapularis_S/activation	Subscapularis_M/activation	Subscapularis_I/activation	Supraspinatus_P/activation	Supraspinatus_A/activation	TRIlong/activation	BIC_long/activation	BIC_brevis/activation	
          1.67000000	        -24.46434415	          3.30936812	          2.03839015	         -4.16393998	         41.35939708	         -3.34704863	         68.41609976	         60.73795332	        -22.16923920	          0.01001072	          0.01001071	          0.01001078	          0.01001076	          0.01001080	          0.01001079	          0.01001081	          0.01001073	          0.01001075	          0.01001077	          0.01001078	          0.01001079	          0.01001080	          0.01001081	          0.01001080	          0.01001080	          0.01001080	          0.01001079	          0.01001081	          0.01001080	          0.01001077	          0.01001174	          0.01001069	          0.01001089	          0.01001079	          0.01001083	          0.01001078	          0.01001078	          0.01001079	          0.01001078	          0.01001079	          0.01001081	          0.01001077	
          1.68000000	        -24.55243992	          3.48343120	          2.09951863	         -4.08677605	         41.69187650	         -3.45318631	         68.40642394	         61.12711731	        -22.33400071	          0.01001071	          0.01001071	          0.01001076	          0.01001077	          0.01001079	          0.01001079	          0.01001081	          0.01001073	          0.01001075	          0.01001078	          0.01001077	          0.01001079	          0.01001080	          0.01001080	          0.01001078	          0.01001079	          0.01001080	          0.01001079	          0.01001080	          0.01001079	          0.01001077	          0.01001190	          0.01001064	          0.01001089	          0.01001083	          0.01001081	          0.01001077	          0.01001076	          0.01001077	          0.01001076	          0.01001079	          0.01001078	          0.01001077	
          1.69000000	        -24.64639537	          3.66634390	          2.15094669	         -4.00363489	         42.02786791	         -3.56164963	         68.41111142	         61.52183662	        -22.52579038	          0.01001071	          0.01001072	          0.01001075	          0.01001078	          0.01001079	          0.01001080	          0.01001081	          0.01001075	          0.01001077	          0.01001079	          0.01001077	          0.01001079	          0.01001080	          0.01001080	          0.01001077	          0.01001078	          0.01001079	          0.01001079	          0.01001079	          0.01001079	          0.01001077	          0.01001198	          0.01001059	          0.01001088	          0.01001086	          0.01001081	          0.01001077	          0.01001075	          0.01001076	          0.01001075	          0.01001079	          0.01001077	          0.01001077	
          1.70000000	        -24.74886299	          3.85654555	          2.18918922	         -3.91590148	         42.36833585	         -3.67228190	         68.43403712	         61.92149398	        -22.72048179	          0.01001072	          0.01001073	          0.01001074	          0.01001079	          0.01001078	          0.01001080	          0.01001081	          0.01001077	          0.01001078	          0.01001081	          0.01001076	          0.01001079	          0.01001080	          0.01001080	          0.01001076	          0.01001077	          0.01001079	          0.01001079	          0.01001078	          0.01001078	          0.01001078	          0.01001193	          0.01001057	          0.01001087	          0.01001086	          0.01001081	          0.01001078	          0.01001075	          0.01001076	          0.01001076	          0.01001079	          0.01001077	          0.01001077	
          1.71000000	        -24.86235522	          4.05140379	          2.21128825	         -3.82569794	         42.71419398	         -3.78470030	         68.47713493	         62.32464149	        -22.89507493	          0.01001071	          0.01001075	          0.01001073	          0.01001081	          0.01001077	          0.01001079	          0.01001080	          0.01001079	          0.01001079	          0.01001082	          0.01001077	          0.01001079	          0.01001080	          0.01001080	          0.01001076	          0.01001077	          0.01001079	          0.01001079	          0.01001077	          0.01001078	          0.01001079	          0.01001174	          0.01001058	          0.01001086	          0.01001085	          0.01001082	          0.01001078	          0.01001076	          0.01001078	          0.01001078	          0.01001079	          0.01001078	          0.01001078	
